<?xml version="1.0" encoding="UTF-8" standalone="no"?>
<!-- Created with Inkscape (http://www.inkscape.org/) -->

<svg
   xmlns:dc="http://purl.org/dc/elements/1.1/"
   xmlns:cc="http://creativecommons.org/ns#"
   xmlns:rdf="http://www.w3.org/1999/02/22-rdf-syntax-ns#"
   xmlns:svg="http://www.w3.org/2000/svg"
   xmlns="http://www.w3.org/2000/svg"
   xmlns:sodipodi="http://sodipodi.sourceforge.net/DTD/sodipodi-0.dtd"
   xmlns:inkscape="http://www.inkscape.org/namespaces/inkscape"
   width="123.81441mm"
   height="146.32748mm"
   viewBox="0 0 123.81442 146.32749"
   version="1.1"
   id="svg8"
   inkscape:version="0.92.1 r15371"
   sodipodi:docname="android.svg">
  <defs
     id="defs2">
    <clipPath
       id="clipPath4429">
      <g
         id="g4431"
         transform="matrix(0.9947658,0,0,1,1.7860989,0)">
        <path
           style="display:inline;overflow:visible;visibility:visible;fill:#efa724;fill-opacity:1;fill-rule:evenodd;stroke:none;stroke-width:30;marker:none"
           id="path4433"
           d="m 322.54143,2800.9375 -4.43505,5.7298 -4.43495,-5.7298 v -43.1429 h -18.93972 l 23.37467,-25.5367 23.13125,25.5367 h -18.6962 z"
           inkscape:connector-curvature="0" />
      </g>
    </clipPath>
  </defs>
  <sodipodi:namedview
     id="base"
     pagecolor="#ffffff"
     bordercolor="#666666"
     borderopacity="1.0"
     inkscape:pageopacity="0.0"
     inkscape:pageshadow="2"
     inkscape:zoom="1.2161367"
     inkscape:cx="238.31861"
     inkscape:cy="179.19945"
     inkscape:document-units="mm"
     inkscape:current-layer="layer1"
     showgrid="false"
     inkscape:window-width="1718"
     inkscape:window-height="1368"
     inkscape:window-x="1913"
     inkscape:window-y="737"
     inkscape:window-maximized="0" />
  <metadata
     id="metadata5">
    <rdf:RDF>
      <cc:Work
         rdf:about="">
        <dc:format>image/svg+xml</dc:format>
        <dc:type
           rdf:resource="http://purl.org/dc/dcmitype/StillImage" />
        <dc:title></dc:title>
      </cc:Work>
    </rdf:RDF>
  </metadata>
  <g
     inkscape:label="Layer 1"
     inkscape:groupmode="layer"
     id="layer1"
     transform="translate(-36.070996,-74.470875)">
    <g
       id="g7045"
       transform="matrix(0.26458333,0,0,0.26458333,15.024341,78.169344)" />
    <g
       id="g7047"
       transform="matrix(0.26458333,0,0,0.26458333,15.024341,78.169344)" />
    <g
       id="g7049"
       transform="matrix(0.26458333,0,0,0.26458333,15.024341,78.169344)" />
    <g
       id="g7051"
       transform="matrix(0.26458333,0,0,0.26458333,15.024341,78.169344)" />
    <g
       id="g7053"
       transform="matrix(0.26458333,0,0,0.26458333,15.024341,78.169344)" />
    <g
       id="g7055"
       transform="matrix(0.26458333,0,0,0.26458333,15.024341,78.169344)" />
    <g
       id="g7057"
       transform="matrix(0.26458333,0,0,0.26458333,15.024341,78.169344)" />
    <g
       id="g7059"
       transform="matrix(0.26458333,0,0,0.26458333,15.024341,78.169344)" />
    <g
       id="g7061"
       transform="matrix(0.26458333,0,0,0.26458333,15.024341,78.169344)" />
    <g
       id="g7063"
       transform="matrix(0.26458333,0,0,0.26458333,15.024341,78.169344)" />
    <g
       id="g7065"
       transform="matrix(0.26458333,0,0,0.26458333,15.024341,78.169344)" />
    <g
       id="g7067"
       transform="matrix(0.26458333,0,0,0.26458333,15.024341,78.169344)" />
    <g
       id="g7069"
       transform="matrix(0.26458333,0,0,0.26458333,15.024341,78.169344)" />
    <g
       id="g7071"
       transform="matrix(0.26458333,0,0,0.26458333,15.024341,78.169344)" />
    <g
       id="g7073"
       transform="matrix(0.26458333,0,0,0.26458333,15.024341,78.169344)" />
  </g>
  <g
     inkscape:groupmode="layer"
     id="layer3"
     inkscape:label="Layer 2"
     transform="translate(26.578412,40.532946)">
    <path
       transform="translate(-62.649409,-115.00382)"
       inkscape:connector-curvature="0"
       d="m 45.127685,121.86854 c -2.521215,0 -4.660371,0.87921 -6.418792,2.63763 -1.758421,1.75842 -2.637896,3.86847 -2.637896,6.33121 v 37.81266 c 0,2.52439 0.879211,4.6617 2.637896,6.42038 1.758421,1.75842 3.897577,2.6379 6.418792,2.6379 2.519362,0 4.645554,-0.87921 6.376722,-2.6379 1.72773,-1.75842 2.593975,-3.89599 2.593975,-6.42038 v -37.81266 c 0,-2.463 -0.87921,-4.57279 -2.637895,-6.33121 -1.758686,-1.75842 -3.870061,-2.63763 -6.332802,-2.63763 z"
       id="path7033"
       style="fill:#ffffff;stroke-width:0.26458332" />
    <path
       transform="translate(-62.649409,-115.00382)"
       inkscape:connector-curvature="0"
       d="m 117.94048,87.924084 6.24364,-11.517842 c 0.40984,-0.762529 0.26406,-1.347258 -0.43868,-1.758421 -0.76279,-0.354541 -1.34884,-0.174889 -1.75842,0.526256 l -6.33095,11.609917 c -5.5708,-2.463006 -11.4628,-3.696758 -17.676013,-3.696758 -6.214533,0 -12.107069,1.234016 -17.675754,3.696758 L 73.973088,75.174077 c -0.411427,-0.701145 -0.997479,-0.87921 -1.75842,-0.526256 -0.704321,0.413015 -0.850107,0.995892 -0.43868,1.758421 l 6.243902,11.517842 c -6.331214,3.22871 -11.373643,7.725304 -15.125435,13.499566 -3.751791,5.77744 -5.628481,12.09093 -5.628481,18.95158 h 81.339796 c 0,-6.85906 -1.87696,-13.17281 -5.62849,-18.95158 -3.75205,-5.774262 -8.76538,-10.270856 -15.0368,-13.499566 z M 81.84259,104.67697 c -0.675216,0.6768 -1.481666,1.01362 -2.419085,1.01362 -0.939271,0 -1.729317,-0.33682 -2.373842,-1.01362 -0.644525,-0.67363 -0.966787,-1.4769 -0.966787,-2.4175 0,-0.93742 0.322262,-1.74228 0.966787,-2.417499 0.644525,-0.67363 1.436423,-1.01044 2.373842,-1.01044 0.937419,0 1.743869,0.33681 2.419085,1.01044 0.67363,0.676809 1.012032,1.480079 1.012032,2.417499 -0.0019,0.93901 -0.33999,1.74387 -1.012032,2.4175 z m 37.06442,0 c -0.64585,0.6768 -1.43775,1.01362 -2.37358,1.01362 -0.93953,0 -1.74572,-0.33682 -2.41961,-1.01362 -0.67496,-0.67363 -1.01177,-1.4769 -1.01177,-2.4175 0,-0.93742 0.33681,-1.74228 1.01177,-2.417499 0.67389,-0.67363 1.48008,-1.01044 2.41961,-1.01044 0.93742,0 1.72747,0.33681 2.37358,1.01044 0.64505,0.676809 0.96679,1.480079 0.96679,2.417499 0,0.93901 -0.322,1.74387 -0.96679,2.4175 z"
       id="path7035"
       style="fill:#ffffff;stroke-width:0.26458332" />
    <path
       inkscape:connector-curvature="0"
       d="m 57.615224,182.10437 c 0,2.69928 0.937419,4.98422 2.812521,6.85932 1.876689,1.87511 4.161631,2.81252 6.859058,2.81252 h 6.507692 l 0.08916,19.96388 c 0,2.52095 0.879211,4.66169 2.637631,6.42037 1.758421,1.75869 3.870061,2.6379 6.331215,2.6379 2.519627,0 4.660106,-0.87921 6.418792,-2.6379 1.758685,-1.75868 2.637895,-3.89916 2.637895,-6.42037 v -19.96202 h 12.134852 v 19.96202 c 0,2.52095 0.87894,4.66169 2.63763,6.42037 1.75869,1.75869 3.89731,2.6379 6.41879,2.6379 2.51963,0 4.66011,-0.87921 6.41879,-2.6379 1.75869,-1.75868 2.63763,-3.89916 2.63763,-6.42037 v -19.96202 h 6.59554 c 2.63763,0 4.8932,-0.93769 6.77174,-2.81279 1.87484,-1.8751 2.81279,-4.16004 2.81279,-6.85906 V 123.53779 H 57.615224 Z"
       id="path7037"
       style="fill:#ffffff;stroke-width:0.26458332"
       transform="translate(-62.649409,-115.00382)" />
    <path
       transform="translate(-62.649409,-115.00382)"
       inkscape:connector-curvature="0"
       d="m 150.82899,121.86854 c -2.46301,0 -4.5728,0.86624 -6.33148,2.59397 -1.75842,1.73091 -2.63763,3.8571 -2.63763,6.37487 v 37.81266 c 0,2.52439 0.87894,4.6617 2.63763,6.42038 1.75868,1.75869 3.87006,2.6379 6.33148,2.6379 2.51962,0 4.6601,-0.87921 6.41879,-2.6379 1.75868,-1.75868 2.63763,-3.89599 2.63763,-6.42038 v -37.81266 c 0,-2.51804 -0.87895,-4.64396 -2.63763,-6.37487 -1.75869,-1.72773 -3.89917,-2.59397 -6.41879,-2.59397 z"
       id="path7039"
       style="fill:#ffffff;stroke-width:0.26458332" />
  </g>
</svg>
