<?xml version="1.0" encoding="UTF-8" standalone="no"?>
<svg
   xmlns:dc="http://purl.org/dc/elements/1.1/"
   xmlns:cc="http://creativecommons.org/ns#"
   xmlns:rdf="http://www.w3.org/1999/02/22-rdf-syntax-ns#"
   xmlns:svg="http://www.w3.org/2000/svg"
   xmlns="http://www.w3.org/2000/svg"
   xmlns:sodipodi="http://sodipodi.sourceforge.net/DTD/sodipodi-0.dtd"
   xmlns:inkscape="http://www.inkscape.org/namespaces/inkscape"
   width="511.06183"
   height="409.94501"
   version="1.1"
   id="svg7545"
   sodipodi:docname="guacamole.svg"
   inkscape:version="0.92.1 r15371">
  <metadata
     id="metadata7551">
    <rdf:RDF>
      <cc:Work
         rdf:about="">
        <dc:format>image/svg+xml</dc:format>
        <dc:type
           rdf:resource="http://purl.org/dc/dcmitype/StillImage" />
      </cc:Work>
    </rdf:RDF>
  </metadata>
  <defs
     id="defs7549" />
  <sodipodi:namedview
     pagecolor="#ffffff"
     bordercolor="#666666"
     borderopacity="1"
     objecttolerance="10"
     gridtolerance="10"
     guidetolerance="10"
     inkscape:pageopacity="0"
     inkscape:pageshadow="2"
     inkscape:window-width="3440"
     inkscape:window-height="1377"
     id="namedview7547"
     showgrid="false"
     inkscape:zoom="1.334664"
     inkscape:cx="-311.7356"
     inkscape:cy="310.42759"
     inkscape:window-x="1912"
     inkscape:window-y="729"
     inkscape:window-maximized="1"
     inkscape:current-layer="svg7545" />
  <path
     style="fill:#ffffff;stroke:none"
     d="m 382.8974,65.96462 c 5.178,1.524 9.665,4.243 12.468,9.015 1.643,2.799 2.223,6.193 4.234,8.775 2.427,3.115 6.383,4.728 9.255,7.395 3.611,3.354 5.599,7.633 8.043,11.815 7.865,-2.27 15.021,-7.413 22,-11.6 13.142,-7.885 26.18,-15.837 37.999,-25.65 5.084,-4.221 15.069,-12.203995 14.368,-19.749995 -0.618,-6.658 -8.564,-11.764 -13.367,-15.373 -13.997,-10.519 -28.906,-19.02 -45,-25.9070003 -4.829,-2.067 -13.386,-6.212 -18.711,-4.10200003 -5.667,2.24600003 -8.993,11.34000033 -11.537,16.38200033 -7.794,15.449 -15.831,32.051 -19.752,48.999995 z"
     id="path4487"
     inkscape:connector-curvature="0" />
  <path
     style="fill:#ffffff;stroke:none"
     d="m 448.8974,112.96462 c -6.699,2.439 -12.818,6.622 -19,10.15 -9.067,5.176 -18.286,10.084 -27,15.85 -1.006,-7.921 -1.122,-19.248 -6.109,-25.79 -3.843,-5.042 -10.439,-7.264 -14.551,-12.225 -3.085,-3.722 -3.705,-9.059 -6.989,-12.487 -4.536,-4.735 -14.398,-8.682 -20.351,-11.498 2.951,-8.723 6.155,-17.459 9.604,-25.999995 1.249,-3.092 4.192,-7.445 3.464,-10.907 -0.978,-4.647 -9.531,-8.929 -13.068,-11.668 -20.362,-15.766 -47.715,-6.195 -71,-13.783 -17.356,-5.6560003 -33.914,-9.3970003 -51.99999,-3.029 -4.362,1.535 -7.947,4.735 -12,6.897 -5.826,3.108 -12.529,5.396 -19,6.682 -15.36,3.053 -32.407,-0.822 -47,6.858 -12.418,6.535 -20.493,19.709 -33,26.637995 -9.289,5.146 -23.225998,7.86 -30.609998,15.641 -6.328,6.669 -8.138,17.999 -13.534,25.671 -5.727,8.142 -14.827,18.415 -14.596,29 0.283,12.928 6.873,23.131 15.741,31.999 15.307,15.309 34.922998,24.503 54.998998,31.797 43.196,15.692 89.439,20.335 134.99999,19.219 36.497,-0.895 73.178,-5.41 108,-17.015 20.999,-6.998 42.929,-16.337 59,-32.015 14.656,-14.296 21.602,-30.124 14,-49.985 z"
     id="path4527"
     inkscape:connector-curvature="0" />
  <path
     style="fill:#ffffff;stroke:none"
     d="m 471.8974,102.96462 c 3.55,6.776 6.371,13.383 7.561,21 2.562,16.401 -4.556,32.429 -14.565,45 -17.405,21.861 -43.456,35.418 -68.996,45.55 -22.11,8.772 -45.62,13.943 -69,17.864 -68.661,11.514 -144.81599,7.581 -209.99999,-18.414 -34.775998,-13.869 -80.198998,-38.676 -82.909998,-81 -1.1461,-17.9 12.096,-31.871 20.844,-46 4.564,-7.371 7.41,-16.133 11.066,-24 -7.526,2.74 -14.365,7.578 -21,12 -18.4843,12.318 -39.8742999,29.588 -43.5609999,53 -2.10750002,13.383 -1.79580002,30.859 1.4599,44 1.2427,5.016 4.6084,9.091 5.8133,14 2.9620999,12.069 -0.2214,27.734 5.4659999,39 3.3378,6.612 11.038,11.767 16.8218,16.105 26.782,20.088 58.25,34.095 89.999998,44.239 65.019,20.774 133.53099,26.215 200.99999,16.229 46.817,-6.93 96.131,-21.036 137,-45.372 9.304,-5.541 18.501,-11.108 27,-17.867 4.194,-3.335 9.094,-7.349 11.347,-12.334 4.876,-10.785 4.585,-24.508 6.827,-36 0.94,-4.823 3.459,-9.197 4.59,-14 2.476,-10.517 2.236,-21.277 2.236,-32 0,-5.88 0.691,-12.257 -0.76,-18 -2.54,-10.055 -7.893,-18.742 -15.244,-25.985 -2.313,-2.28 -5.436,-5.971 -8.996,-5.988 -4.735,-0.023 -10.609,6.081 -14,8.973 z"
     id="path4731"
     inkscape:connector-curvature="0" />
  <path
     style="fill:#ffffff;stroke:none"
     d="m 35.897412,292.96462 c 3.514,12.198 12.559,23.985 20.13,34 24.073,31.847 58.200998,54.432 95.869998,67 26.435,8.82 53.299,13.193 81,15.089 73.32699,5.022 148.39999,-10.489 201.99999,-64.089 13.643,-13.643 26.775,-29.383 35,-47 -10.554,4.703 -19.829,13.755 -30,19.573 -18.096,10.351 -38.121,18.224 -58,24.402 -93.887,29.176 -202.07499,26.007 -291.999988,-15.284 -12.856,-5.903 -25.358,-12.674 -37,-20.716 -5.878,-4.062 -11.049,-9.038 -17,-12.975 z"
     id="path6393"
     inkscape:connector-curvature="0" />
</svg>
