<?xml version="1.0" encoding="UTF-8" standalone="no"?>
<!-- Created with Inkscape (http://www.inkscape.org/) -->

<svg
   xmlns:dc="http://purl.org/dc/elements/1.1/"
   xmlns:cc="http://creativecommons.org/ns#"
   xmlns:rdf="http://www.w3.org/1999/02/22-rdf-syntax-ns#"
   xmlns:svg="http://www.w3.org/2000/svg"
   xmlns="http://www.w3.org/2000/svg"
   xmlns:sodipodi="http://sodipodi.sourceforge.net/DTD/sodipodi-0.dtd"
   xmlns:inkscape="http://www.inkscape.org/namespaces/inkscape"
   width="35.33345mm"
   height="30.845881mm"
   viewBox="0 0 35.333451 30.845881"
   version="1.1"
   id="svg8"
   inkscape:version="0.92.1 r15371"
   sodipodi:docname="nfs.svg">
  <defs
     id="defs2" />
  <sodipodi:namedview
     id="base"
     pagecolor="#ffffff"
     bordercolor="#666666"
     borderopacity="1.0"
     inkscape:pageopacity="0.0"
     inkscape:pageshadow="2"
     inkscape:zoom="2.8"
     inkscape:cx="57.782984"
     inkscape:cy="95.452851"
     inkscape:document-units="mm"
     inkscape:current-layer="layer1"
     showgrid="false"
     inkscape:window-width="1680"
     inkscape:window-height="869"
     inkscape:window-x="1822"
     inkscape:window-y="908"
     inkscape:window-maximized="0" />
  <metadata
     id="metadata5">
    <rdf:RDF>
      <cc:Work
         rdf:about="">
        <dc:format>image/svg+xml</dc:format>
        <dc:type
           rdf:resource="http://purl.org/dc/dcmitype/StillImage" />
        <dc:title></dc:title>
      </cc:Work>
    </rdf:RDF>
  </metadata>
  <g
     inkscape:label="Layer 1"
     inkscape:groupmode="layer"
     id="layer1"
     transform="translate(-62.649408,-115.00382)">
    <path
       style="opacity:1;vector-effect:none;fill:#ffffff;fill-opacity:1;stroke:none;stroke-width:0.99999994px;stroke-linecap:butt;stroke-linejoin:miter;stroke-miterlimit:4;stroke-dasharray:none;stroke-dashoffset:0;stroke-opacity:1"
       d="m 237.08789,518.70117 h 14.69336 v -5.19922 H 237.0625 Z"
       id="path4734"
       transform="scale(0.26458333)"
       inkscape:connector-curvature="0" />
    <path
       style="opacity:1;vector-effect:none;fill:#ffffff;fill-opacity:1;stroke:none;stroke-width:0.99999994px;stroke-linecap:butt;stroke-linejoin:miter;stroke-miterlimit:4;stroke-dasharray:none;stroke-dashoffset:0;stroke-opacity:1"
       d="m 251.78125,521.94141 -14.67773,-0.0195 0.0293,5.68164 h 14.64844 z"
       id="path4730"
       transform="scale(0.26458333)"
       inkscape:connector-curvature="0" />
    <path
       style="opacity:1;vector-effect:none;fill:#ffffff;fill-opacity:1;stroke:none;stroke-width:0.99999994px;stroke-linecap:butt;stroke-linejoin:miter;stroke-miterlimit:4;stroke-dasharray:none;stroke-dashoffset:0;stroke-opacity:1"
       d="m 276.96484,521.97461 -17.60742,-0.0234 1.71485,5.56836 h 15.89257 z"
       id="path4728"
       transform="scale(0.26458333)"
       inkscape:connector-curvature="0" />
    <path
       style="opacity:1;vector-effect:none;fill:#ffffff;fill-opacity:1;stroke:none;stroke-width:0.99999994px;stroke-linecap:butt;stroke-linejoin:miter;stroke-miterlimit:4;stroke-dasharray:none;stroke-dashoffset:0;stroke-opacity:1"
       d="m 276.96484,513.50195 h -20.20898 l 1.60156,5.19922 h 18.60742 z"
       id="path4724"
       transform="scale(0.26458333)"
       inkscape:connector-curvature="0" />
    <path
       style="opacity:1;vector-effect:none;fill:#ffffff;fill-opacity:1;stroke:none;stroke-width:0.99999994px;stroke-linecap:butt;stroke-linejoin:miter;stroke-miterlimit:4;stroke-dasharray:none;stroke-dashoffset:0;stroke-opacity:1"
       d="m 236.78516,458.5918 0.25781,51.33398 14.73828,0.006 V 497.3418 l 3.87695,12.59179 21.30664,0.006 v -51.16992 h -15.17968 v 30 l -9.82032,-30.17773 z"
       id="path4536"
       transform="scale(0.26458333)"
       inkscape:connector-curvature="0" />
    <path
       style="opacity:1;vector-effect:none;fill:#ffffff;fill-opacity:1;stroke:none;stroke-width:0.99999994px;stroke-linecap:butt;stroke-linejoin:miter;stroke-miterlimit:4;stroke-dasharray:none;stroke-dashoffset:0;stroke-opacity:1"
       d="m 308.75,522.01562 -17.87305,-0.0234 0.0156,5.70703 H 308.75 Z"
       id="path4745"
       transform="scale(0.26458333)"
       inkscape:connector-curvature="0" />
    <path
       style="opacity:1;vector-effect:none;fill:#ffffff;fill-opacity:1;stroke:none;stroke-width:0.99999994px;stroke-linecap:butt;stroke-linejoin:miter;stroke-miterlimit:4;stroke-dasharray:none;stroke-dashoffset:0;stroke-opacity:1"
       d="m 308.75,513.50195 h -17.89453 l 0.0137,5.19922 H 308.75 Z"
       id="path4741"
       transform="scale(0.26458333)"
       inkscape:connector-curvature="0" />
    <path
       style="opacity:1;vector-effect:none;fill:#ffffff;fill-opacity:1;stroke:none;stroke-width:0.99999994px;stroke-linecap:butt;stroke-linejoin:miter;stroke-miterlimit:4;stroke-dasharray:none;stroke-dashoffset:0;stroke-opacity:1"
       d="m 290.71484,458.94922 0.13086,50.99414 17.9043,0.006 v -11.53711 h 11.07227 V 485.55469 H 308.92773 V 472.3418 h 11.60743 v -13.39258 z"
       id="path4538"
       transform="scale(0.26458333)"
       inkscape:connector-curvature="0" />
    <path
       style="opacity:1;vector-effect:none;fill:#ffffff;fill-opacity:1;stroke:none;stroke-width:0.99999994px;stroke-linecap:butt;stroke-linejoin:miter;stroke-miterlimit:4;stroke-dasharray:none;stroke-dashoffset:0;stroke-opacity:1"
       d="m 328.50586,509.95703 16.31641,0.004 v -7.26172 h -16.42969 z"
       id="path4758"
       transform="scale(0.26458333)"
       inkscape:connector-curvature="0" />
    <path
       style="opacity:1;vector-effect:none;fill:#ffffff;fill-opacity:1;stroke:none;stroke-width:0.99999994px;stroke-linecap:butt;stroke-linejoin:miter;stroke-miterlimit:4;stroke-dasharray:none;stroke-dashoffset:0;stroke-opacity:1"
       d="m 366.29492,522.0918 -35.04883,-0.0469 c 1.4779,1.90265 3.40998,3.40808 5.53907,4.22461 7.80194,3.47373 18.74342,4.43692 26.25,-0.71484 1.5106,-1.06613 2.48042,-2.24441 3.25976,-3.46289 z"
       id="path4754"
       transform="scale(0.26458333)"
       inkscape:connector-curvature="0" />
    <path
       style="opacity:1;vector-effect:none;fill:#ffffff;fill-opacity:1;stroke:none;stroke-width:0.99999994px;stroke-linecap:butt;stroke-linejoin:miter;stroke-miterlimit:4;stroke-dasharray:none;stroke-dashoffset:0;stroke-opacity:1"
       d="m 368.57227,513.50195 h -16.96485 v 0.44727 c -0.33438,5.18808 -6.47266,4.21459 -6.78515,0 v -0.44727 h -16.26172 l 0.0117,0.80274 c -0.0334,1.56252 0.29707,3.0223 0.81054,4.39648 h 38.42774 c 0.3622,-1.32342 0.61472,-2.67081 0.76172,-4.03906 z"
       id="path4750"
       transform="scale(0.26458333)"
       inkscape:connector-curvature="0" />
    <path
       style="opacity:1;vector-effect:none;fill:#ffffff;fill-opacity:1;stroke:none;stroke-width:0.99999994px;stroke-linecap:butt;stroke-linejoin:miter;stroke-miterlimit:4;stroke-dasharray:none;stroke-dashoffset:0;stroke-opacity:1"
       d="m 348.34375,457.60352 c -2.43634,-0.0811 -4.94608,0.1666 -8.16602,0.80859 -4.60425,0.87194 -7.38197,3.57153 -10,6.42969 -2.19174,2.16911 -6.33612,21.04671 5.17969,28.57031 l 14.28516,9.46484 c 0.75368,1.37911 2.40709,2.30809 1.96484,4.28516 v 2.80273 l 16.96485,0.004 v -3.51953 c 0.39866,-9.24166 -3.51886,-13.06936 -8.875,-16.88086 l -10.33399,-5.9668 c -4.94641,-2.90422 -4.61173,-5.20417 -4.54101,-7.86718 v -4.10743 c 0.0755,-3.44549 5.65702,-4.37367 5.71289,0 v 8.03516 h 16.07226 v -10.53516 c -1.26661,-4.94925 -4.72299,-8.43855 -10.53515,-10.35742 -2.92758,-0.67487 -5.29218,-1.08494 -7.72852,-1.16601 z"
       id="path4540"
       transform="scale(0.26458333)"
       inkscape:connector-curvature="0" />
  </g>
</svg>
