<?xml version="1.0" encoding="UTF-8" standalone="no"?>
<!-- Created with Inkscape (http://www.inkscape.org/) -->

<svg
   xmlns:dc="http://purl.org/dc/elements/1.1/"
   xmlns:cc="http://creativecommons.org/ns#"
   xmlns:rdf="http://www.w3.org/1999/02/22-rdf-syntax-ns#"
   xmlns:svg="http://www.w3.org/2000/svg"
   xmlns="http://www.w3.org/2000/svg"
   xmlns:sodipodi="http://sodipodi.sourceforge.net/DTD/sodipodi-0.dtd"
   xmlns:inkscape="http://www.inkscape.org/namespaces/inkscape"
   width="68.343307mm"
   height="100.54166mm"
   viewBox="0 0 68.343313 100.54167"
   version="1.1"
   id="svg8"
   inkscape:version="0.92.1 r15371"
   sodipodi:docname="pihole.svg">
  <defs
     id="defs2">
    <clipPath
       id="clipPath4429">
      <g
         id="g4431"
         transform="matrix(0.9947658,0,0,1,1.7860989,0)">
        <path
           style="display:inline;overflow:visible;visibility:visible;fill:#efa724;fill-opacity:1;fill-rule:evenodd;stroke:none;stroke-width:30;marker:none"
           id="path4433"
           d="m 322.54143,2800.9375 -4.43505,5.7298 -4.43495,-5.7298 v -43.1429 h -18.93972 l 23.37467,-25.5367 23.13125,25.5367 h -18.6962 z"
           inkscape:connector-curvature="0" />
      </g>
    </clipPath>
  </defs>
  <sodipodi:namedview
     id="base"
     pagecolor="#ffffff"
     bordercolor="#666666"
     borderopacity="1.0"
     inkscape:pageopacity="0.0"
     inkscape:pageshadow="2"
     inkscape:zoom="0.42996926"
     inkscape:cx="20.63206"
     inkscape:cy="10.837101"
     inkscape:document-units="mm"
     inkscape:current-layer="layer1"
     showgrid="false"
     inkscape:window-width="1840"
     inkscape:window-height="869"
     inkscape:window-x="1806"
     inkscape:window-y="519"
     inkscape:window-maximized="0" />
  <metadata
     id="metadata5">
    <rdf:RDF>
      <cc:Work
         rdf:about="">
        <dc:format>image/svg+xml</dc:format>
        <dc:type
           rdf:resource="http://purl.org/dc/dcmitype/StillImage" />
        <dc:title></dc:title>
      </cc:Work>
    </rdf:RDF>
  </metadata>
  <g
     inkscape:label="Layer 1"
     inkscape:groupmode="layer"
     id="layer1"
     transform="translate(160.96609,287.48188)">
    <g
       id="g7045"
       transform="matrix(0.26458333,0,0,0.26458333,15.024341,78.169344)" />
    <g
       id="g7047"
       transform="matrix(0.26458333,0,0,0.26458333,15.024341,78.169344)" />
    <g
       id="g7049"
       transform="matrix(0.26458333,0,0,0.26458333,15.024341,78.169344)" />
    <g
       id="g7051"
       transform="matrix(0.26458333,0,0,0.26458333,15.024341,78.169344)" />
    <g
       id="g7053"
       transform="matrix(0.26458333,0,0,0.26458333,15.024341,78.169344)" />
    <g
       id="g7055"
       transform="matrix(0.26458333,0,0,0.26458333,15.024341,78.169344)" />
    <g
       id="g7057"
       transform="matrix(0.26458333,0,0,0.26458333,15.024341,78.169344)" />
    <g
       id="g7059"
       transform="matrix(0.26458333,0,0,0.26458333,15.024341,78.169344)" />
    <g
       id="g7061"
       transform="matrix(0.26458333,0,0,0.26458333,15.024341,78.169344)" />
    <g
       id="g7063"
       transform="matrix(0.26458333,0,0,0.26458333,15.024341,78.169344)" />
    <g
       id="g7065"
       transform="matrix(0.26458333,0,0,0.26458333,15.024341,78.169344)" />
    <g
       id="g7067"
       transform="matrix(0.26458333,0,0,0.26458333,15.024341,78.169344)" />
    <g
       id="g7069"
       transform="matrix(0.26458333,0,0,0.26458333,15.024341,78.169344)" />
    <g
       id="g7071"
       transform="matrix(0.26458333,0,0,0.26458333,15.024341,78.169344)" />
    <g
       id="g7073"
       transform="matrix(0.26458333,0,0,0.26458333,15.024341,78.169344)" />
    <g
       id="g7192"
       transform="matrix(0.26458333,0,0,0.26458333,-160.96609,-287.48188)"
       style="fill:#ffffff;stroke-width:2.9246521">
      <path
         id="path7182"
         d="M 106.92545,116.78134 C 59.487603,111.72169 11.698794,75.865465 7.9259933,0 81.539477,0 120.90529,43.57731 124.70734,112.62834 138.62868,29.802201 203.87766,39.512044 203.87766,39.512044 206.97779,86.452704 168.43088,114.90957 124.70734,117.27853 112.4238,91.395366 38.839562,27.901177 38.839562,27.901177 a 0.20472562,0.20472562 0 0 0 -0.321712,0.233972 c 0,0 71.01054,61.856384 68.4076,88.646191"
         inkscape:connector-curvature="0"
         style="fill:#ffffff" />
      <path
         id="path7184"
         d="M 129.15281,380 C 124.5611,379.73678 81.714956,378.09897 79.112016,329.9592 77.006266,300.71269 100.11101,279.158 100.11101,250.75964 94.875888,179.95382 1.8721e-4,188.72777 1.8721e-4,250.75964 A 58.317555,58.317555 0 0 0 17.050907,292.11421 l 70.688831,70.71808 a 58.317555,58.317555 0 0 0 41.354572,17.05072"
         inkscape:connector-curvature="0"
         style="fill:#ffffff" />
      <path
         id="path7186"
         d="m 258.30543,250.78888 c -0.26322,4.59171 -1.90103,47.43785 -50.0408,50.04079 -29.24651,2.10575 -50.83044,-20.999 -79.19956,-20.999 -70.805821,5.23513 -62.031866,100.08159 0,100.08159 a 58.317555,58.317555 0 0 0 41.35457,-17.05072 l 70.74733,-70.68884 a 58.317555,58.317555 0 0 0 17.05072,-41.35457"
         inkscape:connector-curvature="0"
         style="fill:#ffffff" />
      <path
         id="path7188"
         d="m 129.15281,121.63626 c 4.5917,0.26322 47.43785,1.90103 50.04079,50.04079 2.10575,29.24652 -20.999,50.8012 -20.999,79.19957 5.23512,70.80582 100.08158,62.03187 100.08158,0 A 58.317555,58.317555 0 0 0 241.22546,209.52205 L 170.50738,138.77472 A 58.317555,58.317555 0 0 0 129.15281,121.724"
         inkscape:connector-curvature="0"
         style="fill:#ffffff" />
      <path
         id="path7190"
         d="M 0.23415935,250.78888 C 0.497378,246.19718 2.135183,203.35103 50.27495,200.74809 c 29.246517,-2.10575 50.83045,20.999 79.19957,20.999 70.80582,-5.32286 62.03186,-100.08158 0,-100.08158 A 58.317555,58.317555 0 0 0 88.119943,138.71623 L 17.372618,209.43431 A 58.317555,58.317555 0 0 0 0.3218989,250.78888"
         inkscape:connector-curvature="0"
         style="fill:#ffffff" />
    </g>
  </g>
  <g
     inkscape:groupmode="layer"
     id="layer3"
     inkscape:label="Layer 2"
     transform="translate(223.61549,402.4857)" />
</svg>
