<?xml version="1.0" encoding="UTF-8" standalone="no"?>
<!-- Created with Inkscape (http://www.inkscape.org/) -->

<svg
   xmlns:dc="http://purl.org/dc/elements/1.1/"
   xmlns:cc="http://creativecommons.org/ns#"
   xmlns:rdf="http://www.w3.org/1999/02/22-rdf-syntax-ns#"
   xmlns:svg="http://www.w3.org/2000/svg"
   xmlns="http://www.w3.org/2000/svg"
   xmlns:sodipodi="http://sodipodi.sourceforge.net/DTD/sodipodi-0.dtd"
   xmlns:inkscape="http://www.inkscape.org/namespaces/inkscape"
   width="248.19632mm"
   height="259.30743mm"
   viewBox="0 0 248.19634 259.30744"
   version="1.1"
   id="svg8"
   inkscape:version="0.92.1 r15371"
   sodipodi:docname="postgresql.svg">
  <defs
     id="defs2">
    <clipPath
       id="clipPath4429">
      <g
         id="g4431"
         transform="matrix(0.9947658,0,0,1,1.7860989,0)">
        <path
           style="display:inline;overflow:visible;visibility:visible;fill:#efa724;fill-opacity:1;fill-rule:evenodd;stroke:none;stroke-width:30;marker:none"
           id="path4433"
           d="m 322.54143,2800.9375 -4.43505,5.7298 -4.43495,-5.7298 v -43.1429 h -18.93972 l 23.37467,-25.5367 23.13125,25.5367 h -18.6962 z"
           inkscape:connector-curvature="0" />
      </g>
    </clipPath>
  </defs>
  <sodipodi:namedview
     id="base"
     pagecolor="#ffffff"
     bordercolor="#666666"
     borderopacity="1.0"
     inkscape:pageopacity="0.0"
     inkscape:pageshadow="2"
     inkscape:zoom="0.10749232"
     inkscape:cx="865.19326"
     inkscape:cy="-298.24825"
     inkscape:document-units="mm"
     inkscape:current-layer="layer1"
     showgrid="false"
     inkscape:window-width="1840"
     inkscape:window-height="869"
     inkscape:window-x="1806"
     inkscape:window-y="519"
     inkscape:window-maximized="0" />
  <metadata
     id="metadata5">
    <rdf:RDF>
      <cc:Work
         rdf:about="">
        <dc:format>image/svg+xml</dc:format>
        <dc:type
           rdf:resource="http://purl.org/dc/dcmitype/StillImage" />
        <dc:title></dc:title>
      </cc:Work>
    </rdf:RDF>
  </metadata>
  <g
     inkscape:label="Layer 1"
     inkscape:groupmode="layer"
     id="layer1"
     transform="translate(1067.6708,410.98427)">
    <g
       id="g7045"
       transform="matrix(0.26458333,0,0,0.26458333,15.024341,78.169344)" />
    <g
       id="g7047"
       transform="matrix(0.26458333,0,0,0.26458333,15.024341,78.169344)" />
    <g
       id="g7049"
       transform="matrix(0.26458333,0,0,0.26458333,15.024341,78.169344)" />
    <g
       id="g7051"
       transform="matrix(0.26458333,0,0,0.26458333,15.024341,78.169344)" />
    <g
       id="g7053"
       transform="matrix(0.26458333,0,0,0.26458333,15.024341,78.169344)" />
    <g
       id="g7055"
       transform="matrix(0.26458333,0,0,0.26458333,15.024341,78.169344)" />
    <g
       id="g7057"
       transform="matrix(0.26458333,0,0,0.26458333,15.024341,78.169344)" />
    <g
       id="g7059"
       transform="matrix(0.26458333,0,0,0.26458333,15.024341,78.169344)" />
    <g
       id="g7061"
       transform="matrix(0.26458333,0,0,0.26458333,15.024341,78.169344)" />
    <g
       id="g7063"
       transform="matrix(0.26458333,0,0,0.26458333,15.024341,78.169344)" />
    <g
       id="g7065"
       transform="matrix(0.26458333,0,0,0.26458333,15.024341,78.169344)" />
    <g
       id="g7067"
       transform="matrix(0.26458333,0,0,0.26458333,15.024341,78.169344)" />
    <g
       id="g7069"
       transform="matrix(0.26458333,0,0,0.26458333,15.024341,78.169344)" />
    <g
       id="g7071"
       transform="matrix(0.26458333,0,0,0.26458333,15.024341,78.169344)" />
    <g
       id="g7073"
       transform="matrix(0.26458333,0,0,0.26458333,15.024341,78.169344)" />
    <g
       id="g7161"
       transform="matrix(0.26458333,0,0,0.26458333,-1075.858,-413.62684)"
       style="fill:#ffffff">
      <path
         id="path7147"
         d="m 708.5,10 c -17,2.8 -34,5.5 -50.9,8.3 0.8,0.4 1.6,0.8 2.4,1.2 19,14.5 42.7,22.9 61.6,36.7 54.3,39.8 112,111.1 127.9,187.2 7,33.4 -5.4,84.8 -10.7,113.7 -8.6,47.2 16.8,87 8.3,137.4 -3.6,21.3 -24.1,71.7 -17.8,77 0,-0.8 0,-1.6 0,-2.4 14.9,-14.8 22.2,-38.2 33.2,-56.9 43.9,-75 75.3,-162.9 97.1,-259.4 8.2,-36.5 15.7,-98.9 1.2,-133.9 -7.4,-17.7 -25.9,-33.7 -40.3,-45 C 865.8,30.7 810.2,9.4 708.5,10 Z"
         inkscape:connector-curvature="0"
         style="fill:#ffffff" />
      <path
         id="path7149"
         d="m 515.4,20.7 c -9.1,0.8 -18.2,1.6 -27.2,2.4 -17,4.7 -34,9.5 -50.9,14.2 -76.7,33.1 -122.1,126.8 -126.8,231 17.5,-8.7 36.4,-18.1 56.9,-23.7 103.6,-28.2 117.8,38 131.5,117.3 5.2,30.1 6.1,72.6 -1.2,101.9 -6.2,24.8 -15.8,46.7 -24.9,67.5 -7.9,22.5 -15.8,45 -23.7,67.5 0.4,0 0.8,0 1.2,0 9.8,-2.6 20,0.7 27.2,3.6 42.7,16.6 37.9,58.3 37.9,116.1 0,104.2 -12.7,245.8 68.7,268.9 24.4,6.9 53.2,-1.2 72.3,-7.1 103.3,-31.9 82.9,-155.2 103.1,-266.5 5.2,-28.9 -1,-68.5 11.8,-90 8.9,-15 22.5,-17.4 36.7,-27.2 C 764.8,529.3 716.8,457.3 691.9,372.7 661.9,270.8 714.9,230 815.1,236.5 769.5,118 677.7,21.6 515.4,20.7 Z"
         inkscape:connector-curvature="0"
         style="fill:#ffffff" />
      <path
         id="path7151"
         d="m 210.9,23 c -17.4,2 -34.8,3.9 -52.1,5.9 -49.1,12.3 -89.1,40.5 -107.8,83 -58.2,132 24.4,377.7 68.7,481 15.1,35.1 44,103.6 81.7,112.5 19.5,4.6 31.2,-9.8 39.1,-17.8 29.2,-33.2 58.4,-66.3 87.7,-99.5 -27.5,-32.3 -64.6,-71.4 -53.3,-141 2,-20.1 3.9,-40.3 5.9,-60.4 C 280,350 279.2,313.2 278.4,276.5 296,162.4 308.8,123.7 364.9,50.2 c 0,-0.4 0,-0.8 0,-1.2 -48.3,-8.2 -93.2,-25.3 -154,-26 z"
         inkscape:connector-curvature="0"
         style="fill:#ffffff" />
      <path
         id="path7153"
         d="M 866,640.2 C 849.1,637 837.4,627 822.2,624.8 c -20.2,10.8 -29.4,12.8 -28.4,45 50.4,24.7 146.8,-9.4 169.4,-36.7 -29.2,3.1 -63.3,13.5 -97.2,7.1 z"
         inkscape:connector-curvature="0"
         style="fill:#ffffff" />
      <path
         id="path7155"
         d="m 455,628.4 c -16.2,17.4 -32.4,34.8 -48.6,52.1 -20.9,13.6 -55.3,18.1 -81.7,24.9 0.4,0.8 0.8,1.6 1.2,2.4 55.5,19.4 101.8,15 141,-17.8 19.4,-16.3 28.7,-60.2 -11.9,-61.6 z"
         inkscape:connector-curvature="0"
         style="fill:#ffffff" />
      <path
         id="path7157"
         d="m 808,361.9 c 3.6,-31.6 7.1,-63.2 10.7,-94.8 -39.2,-1.5 -79.7,-3.3 -96,21.3 -11.6,17.6 -7.5,55.3 -1.2,75.8 15.7,51 40.5,95.2 65.2,137.4 5.5,11.5 11.1,22.9 16.6,34.4 0.8,-0.4 1.6,-0.8 2.4,-1.2 4.8,-25.3 15.9,-52.7 10.7,-86.5 -2.9,-28.8 -5.6,-57.6 -8.4,-86.4 z m -46.9,-39.8 c -13.8,-3.8 -19.2,-6.6 -27.2,-15.4 0.7,-6.8 1.9,-6.7 4.7,-10.7 6.4,-2.5 10.2,-7.1 27.2,-8.3 11.8,2 15.7,3.9 21.3,11.8 -7.2,13.5 -12.8,14.1 -26,22.6 z"
         inkscape:connector-curvature="0"
         style="fill:#ffffff" />
      <path
         id="path7159"
         d="m 440.8,278.9 c -10.5,-7.6 -26.7,-8.5 -45,-8.3 -15,3.9 -30,7.9 -45,11.8 -13.8,7.5 -27.6,15 -41.5,22.5 0.8,29.6 1.6,59.2 2.4,88.8 -4.2,28.5 -11.3,63.2 -5.9,92.4 10.2,56.6 48,104.9 113.6,105.6 5.9,-18.6 11.8,-37.1 17.8,-55.7 10,-24.3 22.5,-47.7 29.6,-75.8 12.4,-48.9 2.7,-160.4 -26,-181.3 z m -0.7,39.7 c -11,25.9 -54.4,15.1 -55.7,-13 0.4,-0.8 0.8,-1.6 1.2,-2.4 3.6,-2 7.1,-3.9 10.7,-5.9 22.3,-0.7 33.2,3.1 45,11.8 -0.5,3.2 -0.8,6.3 -1.2,9.5 z"
         inkscape:connector-curvature="0"
         style="fill:#ffffff" />
    </g>
  </g>
  <g
     inkscape:groupmode="layer"
     id="layer3"
     inkscape:label="Layer 2"
     transform="translate(1130.3202,525.98809)" />
</svg>
