<?xml version="1.0" encoding="UTF-8" standalone="no"?>
<!-- Created with Inkscape (http://www.inkscape.org/) -->

<svg
   xmlns:dc="http://purl.org/dc/elements/1.1/"
   xmlns:cc="http://creativecommons.org/ns#"
   xmlns:rdf="http://www.w3.org/1999/02/22-rdf-syntax-ns#"
   xmlns:svg="http://www.w3.org/2000/svg"
   xmlns="http://www.w3.org/2000/svg"
   xmlns:sodipodi="http://sodipodi.sourceforge.net/DTD/sodipodi-0.dtd"
   xmlns:inkscape="http://www.inkscape.org/namespaces/inkscape"
   width="111.65417mm"
   height="96.960922mm"
   viewBox="0 0 111.65417 96.960922"
   version="1.1"
   id="svg8"
   inkscape:version="0.92.1 r15371"
   sodipodi:docname="proxmox.svg">
  <defs
     id="defs2" />
  <sodipodi:namedview
     id="base"
     pagecolor="#ffffff"
     bordercolor="#666666"
     borderopacity="1.0"
     inkscape:pageopacity="0.0"
     inkscape:pageshadow="2"
     inkscape:zoom="0.7"
     inkscape:cx="477.90459"
     inkscape:cy="133.18756"
     inkscape:document-units="mm"
     inkscape:current-layer="layer2"
     showgrid="false"
     inkscape:window-width="3440"
     inkscape:window-height="1377"
     inkscape:window-x="1912"
     inkscape:window-y="729"
     inkscape:window-maximized="1" />
  <metadata
     id="metadata5">
    <rdf:RDF>
      <cc:Work
         rdf:about="">
        <dc:format>image/svg+xml</dc:format>
        <dc:type
           rdf:resource="http://purl.org/dc/dcmitype/StillImage" />
        <dc:title></dc:title>
      </cc:Work>
    </rdf:RDF>
  </metadata>
  <g
     inkscape:groupmode="layer"
     id="layer2"
     inkscape:label="Layer 2"
     transform="translate(-67.204164,-91.225601)">
    <path
       inkscape:connector-curvature="0"
       style="fill:#ffffff;stroke:none;stroke-width:0.26458332"
       d="m 85.989581,95.803274 c 2.809081,3.98775 6.722533,7.515326 10.031412,11.112496 5.885127,6.39728 11.714427,12.85319 17.529967,19.31458 2.24446,2.4937 4.52649,4.95194 6.81064,7.40834 0.65432,0.70352 1.57718,2.32648 2.66965,2.32648 1.15728,0 2.2135,-1.84785 2.92073,-2.59107 2.38496,-2.50692 4.75192,-5.05962 7.02125,-7.67291 5.16546,-5.9489 10.65768,-11.62183 15.9422,-17.4625 3.68909,-4.07734 7.2689,-8.282196 11.15748,-12.170836 -1.12315,-1.56038 -2.78156,-2.54841 -4.49791,-3.37018 -1.24646,-0.59674 -2.61012,-0.98494 -3.96875,-1.229386 -9.46494,-1.702856 -15.51147,5.891686 -21.05449,12.272482 -1.71926,1.97932 -3.57161,3.84241 -5.29166,5.82083 -0.53208,0.61209 -1.30678,1.83738 -2.22885,1.83738 -1.00912,0 -1.87087,-1.43786 -2.45666,-2.10196 -1.90421,-2.1586 -3.96901,-4.176 -5.85761,-6.35 -2.87523,-3.309806 -5.89492,-7.248146 -9.6774,-9.544386 -6.083035,-3.692851 -14.00757,-2.411496 -19.049999,2.40064 z"
       id="path4507" />
    <path
       inkscape:connector-curvature="0"
       style="fill:#ffffff;stroke:none;stroke-width:0.26458332"
       d="m 95.51458,139.98869 c -1.437745,0.80962 -2.390775,2.23017 -3.484562,3.43958 -1.763712,1.95024 -3.582723,3.84783 -5.322094,5.82083 -4.577027,5.19139 -9.415197,10.15101 -13.98852,15.34584 -1.817423,2.06428 -4.387321,4.08384 -5.51524,6.61458 1.830917,1.42584 3.621881,2.81913 5.820833,3.64358 5.58165,2.09232 11.858096,1.24883 16.66875,-2.30056 2.421996,-1.78726 4.311121,-4.30424 6.319308,-6.5225 3.708665,-4.09628 7.358855,-8.26559 11.152455,-12.28302 3.26972,-3.4626 6.50425,-6.98712 9.62792,-10.58333 0.84137,-0.96838 3.08292,-2.48603 2.47068,-3.96875 -0.4281,-1.03717 -1.53749,-1.83198 -2.2733,-2.64584 -1.83621,-2.03014 -3.71634,-4.03304 -5.52582,-6.08541 -5.11943,-5.80708 -10.33939,-11.58928 -15.675507,-17.19792 -2.71833,-2.85713 -5.275263,-6.35839 -9.006152,-7.96017 -4.960144,-2.12958 -10.130632,-2.41237 -15.08125,-0.0345 -1.248304,0.59958 -4.072996,1.81587 -4.034367,3.49676 0.02408,1.05556 1.249098,1.9535 1.907381,2.64584 1.888596,1.98593 3.647017,4.09416 5.541963,6.07509 4.194439,4.38415 8.173243,9.00139 12.240418,13.50407 2.664884,2.95037 5.858934,5.75813 8.157104,8.99584 z"
       id="path4857" />
    <path
       inkscape:connector-curvature="0"
       style="fill:#ffffff;stroke:none;stroke-width:0.26458332"
       d="m 178.85833,171.20952 c -1.17078,-2.62705 -3.87086,-4.72361 -5.74622,-6.87917 -4.76938,-5.48111 -9.80096,-10.74711 -14.67168,-16.13958 -1.76212,-1.95077 -3.59568,-3.83752 -5.3213,-5.82083 -0.60457,-0.69506 -1.83647,-1.65286 -1.89865,-2.64584 -0.0598,-0.95144 1.11681,-1.77165 1.69836,-2.38125 1.80896,-1.89679 3.4925,-3.91451 5.29273,-5.82083 4.97734,-5.27103 9.84144,-10.7024 14.63701,-16.13958 1.88331,-2.13556 5.06386,-4.41487 6.00975,-7.14375 -2.15133,-1.49614 -4.07353,-3.00212 -6.61458,-3.83114 -4.85088,-1.58269 -10.56217,-1.02346 -14.81667,1.91923 -2.65377,1.8355 -4.72519,4.33276 -6.90298,6.67441 -3.7375,4.01928 -7.30938,8.20129 -11.09901,12.17083 -3.29194,3.44831 -6.54129,6.98368 -9.66708,10.58333 -0.86783,0.9996 -3.05593,2.54556 -3.08821,3.96875 -0.0307,1.33509 2.18175,3.0398 3.02101,3.96875 3.04429,3.37079 6.08806,6.75217 9.20618,10.05417 3.67665,3.89361 7.23,7.92586 10.81246,11.90625 2.03147,2.25716 3.98409,4.83341 6.39471,6.69925 4.80431,3.71872 11.27469,4.62174 16.93334,2.50058 2.19895,-0.82445 3.98991,-2.21774 5.82083,-3.64358 z"
       id="path4873" />
    <path
       inkscape:connector-curvature="0"
       style="fill:#ffffff;stroke:none;stroke-width:0.26458332"
       d="m 85.989581,183.64494 c 5.249862,5.01015 13.385799,6.06451 19.579169,2.09285 3.68485,-2.36299 6.56987,-6.27221 9.48028,-9.50119 1.83356,-2.03411 3.71475,-4.03172 5.52556,-6.08541 0.58579,-0.66437 1.44754,-2.10159 2.45666,-2.10185 1.01679,-5.3e-4 1.97934,1.4941 2.57836,2.17725 1.8796,2.14339 3.87165,4.18439 5.75972,6.31958 2.84876,3.2213 5.74569,6.99293 9.389,9.33529 6.07986,3.90842 14.2068,2.63789 19.31458,-2.23652 -3.13134,-4.1275 -7.03236,-7.84834 -10.55952,-11.64167 -5.74834,-6.18146 -11.34983,-12.51532 -17.00186,-18.78542 -2.24525,-2.49078 -4.52755,-4.953 -6.81064,-7.40833 -0.65431,-0.70353 -1.57718,-2.32648 -2.66964,-2.32648 -1.09247,0 -2.01533,1.62295 -2.66965,2.32648 -2.28309,2.45533 -4.56538,4.91755 -6.81064,7.40833 -5.67002,6.29021 -11.31464,12.61216 -17.064036,18.8304 -3.500702,3.78592 -7.380816,7.48877 -10.497343,11.59669 z"
       id="path6083" />
  </g>
</svg>
